<svg width="35" height="51" viewBox="0 0 35 51" xmlns="http://www.w3.org/2000/svg" xmlns:xlink="http://www.w3.org/1999/xlink"><title>Bits/Icons/Placeholder/icon-placeholder</title><defs><path d="M41.835 40.323c4.467 0 7.357 4.648 7.357 9.091v4.647C42.273 56.144 36.778 56.7 32.639 56.7c-4.137 0-9.632-.556-16.552-2.64v-4.646c0-4.443 2.89-9.09 7.358-9.09h7.087c-8.548-1.029-15.172-8.221-15.172-16.947 0-9.431 7.737-17.077 17.28-17.077 9.543 0 17.28 7.646 17.28 17.077 0 8.726-6.624 15.918-15.172 16.946h7.087zM19.258 23.377c0 7.292 6.003 13.224 13.381 13.224 7.38 0 13.383-5.932 13.383-13.224s-6.003-13.224-13.383-13.224c-7.378 0-13.38 5.932-13.38 13.224zm26.037 27.767v-1.73c0-2.473-1.48-5.238-3.46-5.238h-18.39c-1.98 0-3.46 2.765-3.46 5.238v1.73c4.444 1.131 8.689 1.705 12.654 1.705 3.966 0 8.212-.574 12.656-1.705zm-8.926-27.767c0 2.036-1.669 3.685-3.728 3.685-2.06 0-3.73-1.65-3.73-3.685s1.67-3.684 3.73-3.684 3.728 1.65 3.728 3.684z" id="a"/><path id="c" d="M0 0h64v63H0z"/></defs><g transform="translate(-15 -6)" fill="none" fill-rule="evenodd"><mask id="b" fill="#fff"><use xlink:href="#a"/></mask><use fill="#59BA61" xlink:href="#a"/><g mask="url(#b)"><use fill="#383D43" xlink:href="#c"/></g></g></svg>