<svg id="Layer_1" height="512" viewBox="0 0 512 512" width="512" xmlns="http://www.w3.org/2000/svg" data-name="Layer 1"><path d="m127.3 256c0-82.447 63.2-150.4 143.7-157.984-4.939-.465-9.941-.713-15-.713-87.506-.003-158.7 71.191-158.7 158.697s71.194 158.7 158.7 158.7c5.059 0 10.061-.248 15-.713-80.5-7.587-143.7-75.54-143.7-157.987z" fill="#d4e1f4"/><path d="m256 85.3c-94.123 0-170.7 76.577-170.7 170.7s76.577 170.7 170.7 170.7 170.7-76.577 170.7-170.7-76.577-170.7-170.7-170.7zm0 329.4c-87.506 0-158.7-71.191-158.7-158.7s71.194-158.7 158.7-158.7 158.7 71.194 158.7 158.7-71.194 158.7-158.7 158.7z" fill="#0635c9"/><path d="m469.914 282.3a221.58 221.58 0 0 0 -1.607-62.131l25.864-24.8a6 6 0 0 0 1.344-6.735l-28.173-64.4a6 6 0 0 0 -5.937-3.579l-35.833 2.634a199.026 199.026 0 0 0 -45.029-42.889l1.057-35.812a6 6 0 0 0 -3.836-5.774l-65.547-25.3a6 6 0 0 0 -6.7 1.678l-23.217 26.9a221.612 221.612 0 0 0 -62.137 1.608l-24.8-25.863a6 6 0 0 0 -6.735-1.344l-64.4 28.173a6 6 0 0 0 -3.579 5.937l2.634 35.832a199.047 199.047 0 0 0 -42.883 45.028l-35.812-1.053a6 6 0 0 0 -5.774 3.837l-25.3 65.546a6 6 0 0 0 1.678 6.7l26.9 23.21a221.617 221.617 0 0 0 1.608 62.134l-25.864 24.8a6 6 0 0 0 -1.343 6.735l28.176 64.4a5.982 5.982 0 0 0 5.937 3.579l35.833-2.634a199 199 0 0 0 45.028 42.883l-1.054 35.807a6 6 0 0 0 3.837 5.775l65.546 25.3a6 6 0 0 0 6.7-1.678l23.206-26.9a221.724 221.724 0 0 0 62.13-1.6l24.805 25.863a6 6 0 0 0 6.735 1.344l64.4-28.173a6 6 0 0 0 3.579-5.937l-2.634-35.834a199.045 199.045 0 0 0 42.888-45.028l35.807 1.053a6 6 0 0 0 5.774-3.837l25.3-65.546a6 6 0 0 0 -1.677-6.7zm-6.394 87.176-34.854-1.026a5.994 5.994 0 0 0 -5.169 2.669 187.116 187.116 0 0 1 -44.572 46.8 6 6 0 0 0 -2.416 5.264l2.563 34.864-56.672 24.789-24.121-25.15a6 6 0 0 0 -5.41-1.749 209.74 209.74 0 0 1 -64.843 1.675 6 6 0 0 0 -5.316 2.032l-22.538 26.124-57.639-22.248 1.025-34.854a6 6 0 0 0 -2.669-5.169 187.175 187.175 0 0 1 -46.8-44.571 5.983 5.983 0 0 0 -5.264-2.416l-34.865 2.562-24.8-56.67 25.151-24.12a6 6 0 0 0 1.749-5.41 209.676 209.676 0 0 1 -1.677-64.843 6 6 0 0 0 -2.03-5.316l-26.12-22.542 22.247-57.642 34.854 1.026a6.016 6.016 0 0 0 5.169-2.67 187.179 187.179 0 0 1 44.572-46.8 6 6 0 0 0 2.416-5.264l-2.563-34.863 56.672-24.794 24.121 25.15a6 6 0 0 0 5.41 1.749 209.678 209.678 0 0 1 64.853-1.675 6.009 6.009 0 0 0 5.316-2.031l22.538-26.125 57.639 22.248-1.025 34.854a6 6 0 0 0 2.669 5.168 187.166 187.166 0 0 1 46.8 44.573 6 6 0 0 0 5.264 2.416l34.864-2.563 24.793 56.672-25.15 24.121a6 6 0 0 0 -1.749 5.41 209.677 209.677 0 0 1 1.676 64.843 6 6 0 0 0 2.029 5.315l26.119 22.542z" fill="#0635c9"/><path d="m237.114 348.358a5.994 5.994 0 0 0 6.886-3.016l57.319-109.822a6 6 0 0 0 -5.319-8.776h-23.052l21.111-55.165a6 6 0 0 0 -5.6-8.144h-57.459a6 6 0 0 0 -5.932 5.1l-15 99.045a6 6 0 0 0 5.932 6.9h19.79l-3.107 67.812a6 6 0 0 0 4.431 6.066zm-14.137-85.879 13.183-87.044h43.574l-21.11 55.165a6 6 0 0 0 5.6 8.145h21.876l-40.188 76.992 2.153-46.982a6 6 0 0 0 -5.994-6.275z" fill="#1ae5be"/></svg>