<svg width="48" height="47" viewBox="0 0 48 47" xmlns="http://www.w3.org/2000/svg" xmlns:xlink="http://www.w3.org/1999/xlink"><title>Bits/Icons/Placeholder/icon-placeholder</title><defs><path d="M23.339 4.526c2.113 0 3.826 1.685 3.826 3.766 0 2.08-1.713 3.767-3.826 3.767-2.114 0-3.826-1.687-3.826-3.767s1.712-3.766 3.826-3.766zm21.637 9.806a22.688 22.688 0 0 1 1.708 8.645c0 2.94-.568 5.878-1.708 8.646a22.873 22.873 0 0 1-5.128 7.602 23.292 23.292 0 0 1-7.722 5.047 23.693 23.693 0 0 1-8.784 1.683c-2.985 0-5.97-.56-8.782-1.683a23.292 23.292 0 0 1-7.722-5.047 22.873 22.873 0 0 1-5.128-7.602 22.696 22.696 0 0 1 0-17.29A22.873 22.873 0 0 1 6.838 6.73a23.292 23.292 0 0 1 7.722-5.048A23.693 23.693 0 0 1 23.342 0c2.987 0 5.972.56 8.784 1.683a23.292 23.292 0 0 1 7.722 5.048 22.873 22.873 0 0 1 5.128 7.601zm-3.707 15.812a18.826 18.826 0 0 0-4.249-20.63 19.297 19.297 0 0 0-6.397-4.182 19.633 19.633 0 0 0-7.28-1.395c-2.477 0-4.953.465-7.28 1.395a19.297 19.297 0 0 0-6.397 4.182 18.95 18.95 0 0 0-4.249 6.298 18.796 18.796 0 0 0-.166 13.897 8.202 8.202 0 0 1 1.584-2.18 8.344 8.344 0 0 1 2.78-1.811 8.577 8.577 0 0 1 3.16-.603c.084 0 .169.004.254.007a10.238 10.238 0 0 1 .543-6.048 10.34 10.34 0 0 1 2.316-3.435 10.53 10.53 0 0 1 3.489-2.28 10.69 10.69 0 0 1 3.965-.76c1.348 0 2.696.253 3.967.76a10.53 10.53 0 0 1 3.49 2.28 10.262 10.262 0 0 1 0 14.678 10.53 10.53 0 0 1-3.49 2.28 10.717 10.717 0 0 1-7.932 0 10.53 10.53 0 0 1-3.492-2.283 4.34 4.34 0 0 0-1.448-.945 4.504 4.504 0 0 0-1.662-.316 4.5 4.5 0 0 0-1.663.316 4.358 4.358 0 0 0-1.449.945 4.28 4.28 0 0 0-1.281 3.062 4.28 4.28 0 0 0 1.281 3.063l.003.003a19.297 19.297 0 0 0 6.397 4.182 19.652 19.652 0 0 0 7.28 1.394 19.67 19.67 0 0 0 7.28-1.394 19.297 19.297 0 0 0 6.397-4.182 18.95 18.95 0 0 0 4.249-6.298zM16.8 22.977a6.37 6.37 0 0 0 1.916 4.555 6.514 6.514 0 0 0 2.164 1.415 6.65 6.65 0 0 0 2.462.471c.84 0 1.678-.157 2.464-.47a6.514 6.514 0 0 0 2.164-1.416 6.37 6.37 0 0 0 0-9.109 6.514 6.514 0 0 0-2.164-1.414 6.651 6.651 0 0 0-2.464-.472 6.65 6.65 0 0 0-2.462.472 6.514 6.514 0 0 0-2.164 1.415 6.368 6.368 0 0 0-1.916 4.554z" id="a"/><path id="c" d="M0 0h64v63H0z"/></defs><g transform="translate(.96 .82)" fill="none" fill-rule="evenodd"><mask id="b" fill="#fff"><use xlink:href="#a"/></mask><use fill="#59BA61" xlink:href="#a"/><g mask="url(#b)"><use fill="#383D43" xlink:href="#c" transform="translate(-8.96 -8.82)"/></g></g></svg>