<svg height="472pt" viewBox="-21 0 472 472" width="472pt" xmlns="http://www.w3.org/2000/svg"><path d="m22.960938 424c-8.835938 0-16 7.164062-16 16v32h416v-32c0-8.835938-7.164063-16-16-16zm0 0" fill="#57565c"/><path d="m390.960938 296v128h-352v-128c0-97.203125 78.796874-176 176-176 97.203124 0 176 78.796875 176 176zm0 0" fill="#d80027"/><path d="m190.960938 280h48v48h-48zm0 0" fill="#3e3d42"/><g fill="#ff9811"><path d="m238.960938 336 72 24h24v-112h-24l-72 24zm0 0"/><path d="m190.960938 336v-64l-72-24h-24v112h24zm0 0"/><path d="m206.960938 0h16v80h-16zm0 0"/><path d="m0 92.347656 11.3125-11.3125 56.570312 56.570313-11.3125 11.3125zm0 0"/><path d="m362.039062 137.613281 56.570313-56.566406 11.3125 11.3125-56.566406 56.570313zm0 0"/></g><path d="m38.960938 408h352v16h-352zm0 0" fill="#bd0022"/><path d="m342.242188 236.585938c-17.394532-32.964844-46.933594-57.867188-82.359376-69.441407l4.984376-15.199219c39.359374 12.855469 72.175781 40.519532 91.503906 77.144532zm0 0" fill="#ff7956"/></svg>