<svg width="45" height="48" viewBox="0 0 45 48" xmlns="http://www.w3.org/2000/svg" xmlns:xlink="http://www.w3.org/1999/xlink"><title>Bits/Icons/Placeholder/icon-placeholder</title><defs><path d="M37.242 0c4 0 7.255 3.203 7.255 7.142v32.682c0 3.937-3.255 7.14-7.255 7.14h-11.67c-4 0-7.254-3.203-7.254-7.14V7.142C18.318 3.203 21.572 0 25.572 0h11.67zm3.255 39.824V35.77h-18.18v4.054c0 1.761 1.464 3.203 3.255 3.203h11.67c1.79 0 3.255-1.442 3.255-3.203zm0-7.991V7.142c0-1.763-1.465-3.204-3.255-3.204h-11.67c-1.79 0-3.255 1.441-3.255 3.204v24.69h18.18zM8.6 0c2.852 0 5.004 2.462 5.004 5.728V41.17c0 3.266-2.152 5.728-5.004 5.728H5.004C2.15 46.897 0 44.435 0 41.17V5.73C0 2.461 2.15 0 5.004 0H8.6zm1.004 41.17V5.727c0-.985-.452-1.79-1.004-1.79H5.004C4.452 3.938 4 4.743 4 5.728V41.17c0 .986.452 1.791 1.004 1.791H8.6c.552 0 1.004-.805 1.004-1.79z" id="a"/><path id="c" d="M0 0h64v63H0z"/></defs><g transform="translate(.24 .56)" fill="none" fill-rule="evenodd"><mask id="b" fill="#fff"><use xlink:href="#a"/></mask><use fill="#59BA61" xlink:href="#a"/><g mask="url(#b)"><use fill="#383D43" xlink:href="#c" transform="translate(-10.24 -7.56)"/></g></g></svg>