<?xml version="1.0"?>
<svg xmlns="http://www.w3.org/2000/svg" xmlns:xlink="http://www.w3.org/1999/xlink" id="Layer_1" data-name="Layer 1" viewBox="0 0 512 512" width="512" height="512"><defs><linearGradient id="linear-gradient" x1="256" y1="20" x2="256" y2="482.973" gradientUnits="userSpaceOnUse"><stop offset="0" stop-color="#00efd1"/><stop offset="1" stop-color="#00acea"/></linearGradient><linearGradient id="linear-gradient-3" x1="255" y1="20" x2="255" y2="482.973" xlink:href="#linear-gradient"/></defs><title>Home Lock</title><path d="M263.413,30.356a8,8,0,0,0-10.864-.046L22.687,241.011a8.093,8.093,0,0,0-2.687,5.9V326.3a8.089,8.089,0,0,0,4.874,7.324,8.2,8.2,0,0,0,8.748-1.428L79,290.7v185.1A8.054,8.054,0,0,0,86.853,484H429.058A8.128,8.128,0,0,0,437,475.794V293.625l41.325,38.525a8.03,8.03,0,0,0,5.473,2.15,8.481,8.481,0,0,0,3.29-.663A8.1,8.1,0,0,0,492,326.3V246.907a8.091,8.091,0,0,0-2.637-5.85ZM421,468H95V276.023L257.953,126.5,421,278.7Zm55-160.1L263.507,109.75A8.182,8.182,0,0,0,252.5,109.7L36,308.11V250.425L257.909,47.1,476,250.384Z" style="fill:url(#linear-gradient)"/><path d="M206,286.2V300h-7.167A7.945,7.945,0,0,0,191,308.1v91.079A7.708,7.708,0,0,0,198.833,407H313.167A7.708,7.708,0,0,0,321,399.178V308.1a7.945,7.945,0,0,0-7.833-8.1H306V286.2a50.214,50.214,0,0,0-15.033-35.813,49.215,49.215,0,0,0-35.051-14.238A50.13,50.13,0,0,0,206,286.2ZM305,391H207V316h98ZM279.7,261.749A34.327,34.327,0,0,1,290,286.2V300H222V286.2a34.127,34.127,0,0,1,33.983-34.052A33.351,33.351,0,0,1,279.7,261.749Z" style="fill:url(#linear-gradient)"/><path d="M255,374.235a8,8,0,0,0,8-8V352.67a8,8,0,0,0-16,0v13.565A8,8,0,0,0,255,374.235Z" style="fill:url(#linear-gradient-3)"/></svg>
