<svg width="50" height="50" viewBox="0 0 50 50" xmlns="http://www.w3.org/2000/svg"><title>Bits/Icons/products/keypad</title><g fill="#3D3E3D"><path d="M24.72 30.08v.11a.31.31 0 0 0 .11.27.57.57 0 0 0 .31.07h.74a.47.47 0 0 0 .33-.09.4.4 0 0 0 .08-.26v-.11a.28.28 0 0 0-.17-.28.19.19 0 0 0 .1-.06.31.31 0 0 0 .06-.21v-.08a.28.28 0 0 0-.11-.26.47.47 0 0 0-.33-.08h-.66a.53.53 0 0 0-.34.08.3.3 0 0 0-.1.26v.09a.27.27 0 0 0 .07.21.19.19 0 0 0 .09.05l-.12.06a.35.35 0 0 0-.06.23zm.31-.74h.7a.65.65 0 0 1 .26 0 .16.16 0 0 1 .06.15.24.24 0 0 1-.05.17h-.74a.49.49 0 0 1-.25 0 .32.32 0 0 1 0-.17c-.01-.08-.01-.13-.01-.15h.03zm0 .6h.76a.49.49 0 0 1 .26 0v.17c0 .17 0 .16-.05.18a.76.76 0 0 1-.31 0h-.41a.73.73 0 0 1-.27 0s-.01-.08-.01-.19a.34.34 0 0 1 0-.16h.03zm-.31-5.83a.3.3 0 0 0 .1.26.54.54 0 0 0 .33.1h.63a.78.78 0 0 0 .37-.08.35.35 0 0 0 .15-.34v-.16a.37.37 0 0 0-.13-.33.56.56 0 0 0-.36-.09h-.49a.72.72 0 0 0-.26 0h-.08v-.3h1.2a.06.06 0 0 0 .06-.06v-.01a.05.05 0 0 0-.06-.06h-1.37a.05.05 0 0 0-.06.06v.66h.17a.07.07 0 0 0 .06 0 .18.18 0 0 1 .02-.06.37.37 0 0 1 .17 0h.54a.43.43 0 0 1 .24 0c.05 0 .07.09.07.18V24c0 .13 0 .18-.06.2a.6.6 0 0 1-.28.05h-.48a.37.37 0 0 1-.2-.05v-.12c0-.12 0-.05-.07-.05h-.1s-.07 0-.07.05l-.04.03zm8.1 6.16a.3.3 0 0 1-.21.05h-.74c-.03 0-.05 0-.05-.09s0-.05-.07-.05h-.1c-.06 0-.07 0-.07.05a.28.28 0 0 0 .13.26.89.89 0 0 0 .42.08h.52a.57.57 0 0 0 .32-.09.34.34 0 0 0 .14-.3v-.62a.38.38 0 0 0-.11-.36.55.55 0 0 0-.37-.1h-.49a.88.88 0 0 0-.43.07.36.36 0 0 0-.14.32v.11a.33.33 0 0 0 .11.28.51.51 0 0 0 .32.12h.62a.73.73 0 0 0 .23 0v-.05.23a.22.22 0 0 1-.03.09zm0-.54a.88.88 0 0 1-.3 0H32a.31.31 0 0 1-.13 0s-.05-.07-.05-.15a.34.34 0 0 1 .05-.2s.12-.06.33-.06h.32c.23 0 .3 0 .32.05a.27.27 0 0 1 0 .19.21.21 0 0 1-.04.17h.02zm-1.17-11.54a.64.64 0 0 0 .39.09h.56a.79.79 0 0 0 .4-.08.34.34 0 0 0 .11-.29v-.06a.45.45 0 0 0 0-.24.3.3 0 0 0-.11-.07h.07a.33.33 0 0 0 .08-.24v-.05a.31.31 0 0 0-.12-.28.6.6 0 0 0-.36-.09H32a.45.45 0 0 0-.3.09.31.31 0 0 0-.1.26v.07a.05.05 0 0 0 .06.06h.1a.05.05 0 0 0 .06-.06v-.1a.12.12 0 0 1 .06-.12.51.51 0 0 1 .23 0h.75c.01 0 0 .08 0 .17v.16a.29.29 0 0 1-.17 0h-.47s-.07 0-.07.06v.09s0 .06.07.06h.67c.02 0 0 0 0 .16v.19a.78.78 0 0 1-.28 0h-.8c-.03 0 0-.05 0-.19a.06.06 0 0 0-.06-.06h-.11a.05.05 0 0 0-.06.06v.07a.36.36 0 0 0 .07.34zm-5.84 17h-.61a.56.56 0 0 0-.38.11.46.46 0 0 0-.12.36v.5a.46.46 0 0 0 .12.36.49.49 0 0 0 .38.11h.61a.54.54 0 0 0 .39-.12.42.42 0 0 0 .12-.35v-.5a.49.49 0 0 0-.12-.36.62.62 0 0 0-.39-.11zm.27.89c0 .22 0 .27-.07.29-.07.02-.14.05-.3.05h-.45a.54.54 0 0 1-.26 0s-.06-.08-.06-.3v-.33c0-.22 0-.28.06-.3.06-.02.1-.06.3-.06h.42c.21 0 .27 0 .29.06.02.06.07.09.07.3v.29zm-.32-18.54h-.57a.69.69 0 0 0-.36.12.4.4 0 0 0-.1.32v.19s0 .06.07.06h1.42s.07 0 .07-.06v-.08s0-.06-.07-.06H25v-.16a.8.8 0 0 1 .23-.05h.59a.63.63 0 0 0 .36-.11.45.45 0 0 0 .09-.33.52.52 0 0 0-.11-.36.54.54 0 0 0-.38-.1h-.56a.54.54 0 0 0-.38.1.41.41 0 0 0-.11.31v.1c0 .05 0 .05.06.05h.1s.07 0 .07-.05v-.05c0-.1 0-.17.05-.2a.22.22 0 0 1 .18-.06h.59a.27.27 0 0 1 .19.05s.05.1.05.21v.18a.52.52 0 0 1-.26-.02zm-7.83-.16h.06l.41-.33v1.1s0 .06.07.06h.1c.05 0 .07 0 .07-.06v-1.3s0-.06-.07-.06h-.21l-.11.09-.4.32a.05.05 0 0 0 0 .07l.08.11zm-.17 6.8h1.1v.22s0 .06.07.06H19s.07 0 .07-.06v-.22h.15c.05 0 .07 0 .07-.06V24s0-.06-.07-.06h-.12v-.84a.07.07 0 1 0-.1-.1h-.2l-.41.34-.67.53v.18a.068.068 0 0 0 .04.13zm.67-.56l.43-.35V24H18l.43-.38zm-.1 6.88l.08-.1.87-1v-.16s0-.06-.07-.06h-1.43s-.07 0-.07.06v.09s0 .06.07.06H19l-.67.79-.27.32a.06.06 0 0 0 .06 0h.21zM33.11 24a.32.32 0 0 0-.1-.27.46.46 0 0 0-.31-.09h-.62a.36.36 0 0 0-.23 0l-.05.05v-.26c0-.14.08-.2.26-.2h.74a.09.09 0 0 1 .05.07.07.07 0 0 0 .07.06H33s.07 0 .07-.06a.23.23 0 0 0-.13-.24.7.7 0 0 0-.4-.09H32a.53.53 0 0 0-.34.1.38.38 0 0 0-.13.29v.63a.39.39 0 0 0 .12.32.59.59 0 0 0 .38.1h.49a.88.88 0 0 0 .43-.08.34.34 0 0 0 .13-.31l.03-.02zm-.3.26a.83.83 0 0 1-.32 0h-.32a.63.63 0 0 1-.3 0s-.06-.09-.06-.19 0-.17.08-.19a.68.68 0 0 1 .29 0h.31a1.13 1.13 0 0 1 .32 0 .1.1 0 0 1 .06.05V24c0 .13-.02.19-.06.22v.04zM18.28 35.87l-.11.09.46.6h.12l.83-1.21-.12-.08-.77 1.12zm13.42.22a.51.51 0 0 0 .07.17l-.1.11.11.13a.69.69 0 0 0 .13.11l.1-.1a.51.51 0 0 0 .17.07v.14c.06.01.12.01.18 0h.16v-.14a.71.71 0 0 0 .18-.08l.1.1a.52.52 0 0 0 .24-.24l-.1-.09a.71.71 0 0 0 .06-.17h.14a1.11 1.11 0 0 0 0-.17 1 1 0 0 0 0-.17H33a.67.67 0 0 0-.07-.18l.1-.1a1 1 0 0 0-.24-.24l-.1.1a.48.48 0 0 0-.18-.07v-.15h-.33v.14a.75.75 0 0 0-.18.07l-.1-.1-.14.11a1.13 1.13 0 0 0-.1.13l.09.1a1.34 1.34 0 0 0-.07.18h-.14a.73.73 0 0 0 0 .34h.16zm.66-.57a.4.4 0 1 1 0 .8.4.4 0 0 1 0-.8z"/><path d="M27.37 44.37l1.91-.19 1.88-.31 1.87-.43L34.2 43l1.09-.58.51-.36.48-.41.44-.45.08-.1.32-.38.36-.52.32-.55.4-.65.22-.59.29-1.2.1-1.2v-21.5l-.1-1.17-.29-1.18-.22-.58-.27-.57-.31-.54-.38-.51-.4-.49-.45-.44-.48-.4-.59-.63-1.07-.58L33.09 7l-.33-.08-1.53-.35-1.88-.3-1.92-.19L25.45 6l-1.91.07-1.92.19-1.88.3-1.89.44h-.06l-1.1.38-1.12.62-1 .76-.45.44-.4.49-.38.51-.31.54-.49 1.15-.11.43-.18.77-.1 1.2v21.65l.09 1.15.29 1.2.21.57.27.56.31.55.37.52.4.48.44.45.48.41.51.36 1.07.57 1.1.39 1.86.43 1.88.31 1.91.19 1.91.06 1.91-.06.21.29zM13.1 15.73V14.6l.11-1.08.14-.71.07-.36.17-.51.21-.49.25-.47.23-.36.06-.09.34-.42.37-.4.39-.35.47-.36.45-.28.48-.24 1-.42 1-.32L20 7.55l1.08-.19 2.18-.25L25.44 7l2.21.07 2.18.25 1.08.19 1.09.27.31.1.73.21 1 .41.62.36L35 9l.43.32.39.36.37.39.25.32.08.1.3.45V11l.09.16.13.25.14.33.07.16.16.51.22 1.06v.52l.06.57v21.21l-.07.75v.34l-.2 1.14-.16.5-.21.5-.25.46-.3.46-.33.43-.37.38-.39.36-.44.32L34 42l-.95.39-1.05.29h-.21l-.86.19-1.08.18-2.18.25-2.21.08-2.21-.08-2.25-.21-1.09-.18h-.06l-1-.22-1-.31-1-.42-.47-.24-.44-.28-.43-.32-.39-.35-.36-.4-.34-.41-.29-.45-.13-.18v-.11l-.17-.22-.15-.36-.06-.14-.17-.5-.21-1-.07-.75V15.8l-.07-.07z"/><path d="M40.93 35.87V13.76L40.8 13l-.16-.78-.22-.76-.28-.76-.36-.74-.42-.71-.47-.68-.53-.63-.59-.58-.63-.52-.66-.47-.68-.39-.71-.35-.71-.28-.72-.35h-.21l-.34-.1-1.61-.46-2-.31-2-.2-2-.06-2 .06-2 .2-2 .31-1.8.41h-.36V5l-.53.16-.81.23-.71.35-.68.39-.66.47-.63.52-.59.58-.53.63-.47.67-.42.71-.36.74-.28.76-.22.76-.15.78-.09.75v23.41l.09.76.15.77.22.76.28.76.36.73.42.71.47.67.53.63.59.58.63.52.66.47.69.4.71.34.71.28.53.16h.21l.33.1.61.14h-.05.14l.95.21v.05h.27l.27.06v-.07h1.74l.09.07.1.06h2.01l.11-.06.09-.07h2.56l.1.08h2.01v-.05h.05l.09-.08h1.77v.07l.27-.06h.63v-.08l.64-.14h.13l.54-.12.39-.09h.22l.53-.16.71-.28.71-.34.69-.4L37 44l.63-.52.59-.58.53-.63.47-.67.42-.71.36-.73.28-.76.22-.76.16-.77.09-.76v-.77l.18-.47zm-3.61 7.2l-.61.51-.65.46-.66.39-.69.33L34 45l-.7.22-1.68.37 1.68-.38.22-.06.66-.22.69-.28.64-.33.65-.4.62-.45.58-.51.55-.55.49-.6.42-.58.35-.6.34-.7.29-.74.3-1.14-.07.36-.15.53-.07.22-.18.48-.1.25-.15.32-.16.33v.07l-.3.51-.1.18-.47.65-.52.61-.27.27-.24.24zm-21.84 1.36l-.66-.43-.65-.46-.61-.51-.56-.52-.52-.61-.48-.65-.4-.69-.35-.72-.25-.73-.21-.72-.09-.39.3 1.11.29.75.33.68.37.64.42.59.5.61.54.56.56.5.62.45.63.39.66.34.69.28.68.23.24.06 1.67.38-1.68-.37-.7-.22-.69-.27-.65-.28zm8.04.77l-1.93-.2-1.9-.3-1.89-.4h-.18l-1.23-.46-.63-.31-.61-.39-.88-.7-.54-.52-.55-.67-.47-.69-.35-.64-.45-1.07v-.09l-.18-.61-.14-.68-.1-1.31V36l-.09-21.43.08-1.2v-.11l.12-.65.18-.66.24-.66.3-.65.37-.65.43-.62.44-.54.48-.5.48-.42.55-.42.62-.49.62-.32.69-.22.66-.23h.15l1.89-.42 1.92-.31 1.93-.19h3.88l1.93.19 1.92.31 1.89.42h.15l.66.23.64.26.62.32.59.36.62.48.53.48.85 1 .42.62.37.65.3.65.24.66.18.66.12.65.09 1.3L39.41 36v.16l-.1 1.31-.14.68-.2.7-.17.4-.28.68-.35.64-.47.68-.56.67-.53.52-.88.7-.61.39-.63.31-1.23.46h-.18l-1.89.42-1.9.3-1.93.18-1.92.06-1.92-.06z"/><path d="M25.51 13.83a2.69 2.69 0 1 0 0-5.38 2.69 2.69 0 0 0 0 5.38zm0-5.32a2.64 2.64 0 1 1 0 5.28 2.64 2.64 0 0 1 0-5.28z"/><path d="M24 11.31V12h.33v-.68l.62-1h-.34l-.36.61a.75.75 0 0 1-.07.12l-.18-.37-.24-.43h-.34v.06l.57 1a.08.08 0 0 1 .01 0zm.82-.46v.05c0 .05 0 .1-.05.15H25l.05-.05h.24a.16.16 0 0 1 .14.06.24.24 0 0 1 0 .08.17.17 0 0 1 0 .07.23.23 0 0 1-.14.1h-.19a.25.25 0 0 0-.12 0l-.26.08a.09.09 0 0 0 0 .06.14.14 0 0 1 0 .06v.1a.64.64 0 0 0 0 .07v.07a.34.34 0 0 0 .15.14h.52l.16-.1a1 1 0 0 0 0 .12h.28a.36.36 0 0 1 0-.1 1.52 1.52 0 0 1 0-.21v-.49a.41.41 0 0 0 0-.22v-.1a.14.14 0 0 0-.1-.05h-.58c-.15.03-.28.04-.33.11zm.71.5c.02.11.02.22 0 .33 0 0-.07.09-.12.11a.38.38 0 0 1-.16 0h-.13a.13.13 0 0 1-.12-.12.17.17 0 0 1 0-.14.19.19 0 0 1 .09-.09l.47-.13-.03.04zm.99.19v.1l.1.15.17.13.21.08h.3a1 1 0 0 0 .22-.14.55.55 0 0 0 .12-.21h-.21a.17.17 0 0 1-.12.1h-.21a.34.34 0 0 1-.19-.07.33.33 0 0 1-.07-.16v-.13h.95v-.19a.36.36 0 0 0 0-.1 1 1 0 0 1-.07-.15s0-.05-.05-.06l-.14-.13h-.19a.16.16 0 0 0-.1 0 .76.76 0 0 1-.16 0 .18.18 0 0 0-.09 0l-.12.08a.2.2 0 0 0-.07.06c0 .05-.07.11-.11.17v.25l-.17.22zm.31-.45a.3.3 0 0 1 .12-.15h.25a.33.33 0 0 1 .13.07c.038.078.071.158.1.24h-.68l.08-.16zm-.5-.85H26V12h.29z"/></g></svg>