<svg height="512" viewBox="0 0 64 64" width="512" xmlns="http://www.w3.org/2000/svg" xmlns:xlink="http://www.w3.org/1999/xlink"><linearGradient id="New_Gradient_Swatch_3" gradientUnits="userSpaceOnUse" x1="32" x2="32" y1="62.353" y2="2.286"><stop offset="0" stop-color="#006df0"/><stop offset="1" stop-color="#00e7f0"/></linearGradient><linearGradient id="New_Gradient_Swatch_3-2" x1="48.5" x2="48.5" xlink:href="#New_Gradient_Swatch_3" y1="62.353" y2="2.286"/><g id="Cctv-2" data-name="Cctv"><path d="m61 2h-58a1 1 0 0 0 -1 1v4a7.01 7.01 0 0 0 5 6.705v9.295a7 7 0 0 0 4 6.315v11.685a20.929 20.929 0 0 0 6.272 14.946.909.909 0 0 0 .072.066 20.93 20.93 0 0 0 29.312 0 .909.909 0 0 0 .072-.066 20.929 20.929 0 0 0 6.272-14.946v-11.685a7 7 0 0 0 4-6.315v-9.295a7.009 7.009 0 0 0 5-6.705v-4a1 1 0 0 0 -1-1zm-42 52.818v-3.818a13 13 0 1 1 26 0v3.818a18.9 18.9 0 0 1 -26 0zm32-13.818a18.883 18.883 0 0 1 -4 11.619v-1.619a15 15 0 0 0 -30 0v1.619a18.883 18.883 0 0 1 -4-11.619v-11.08c.328.047 37.672.047 38 0zm4-18a5.006 5.006 0 0 1 -5 5h-36a5.006 5.006 0 0 1 -5-5v-9h46zm5-16a5.006 5.006 0 0 1 -5 5h-46a5.006 5.006 0 0 1 -5-5v-3h56z" fill="url(#New_Gradient_Swatch_3)"/><path d="m45 26h5a3 3 0 0 0 3-3v-4.09a1 1 0 1 0 -2 0v4.09a1 1 0 0 1 -1 1h-5a1 1 0 0 0 0 2z" fill="url(#New_Gradient_Swatch_3-2)"/><g fill="url(#New_Gradient_Swatch_3)"><path d="m32 40a9 9 0 1 0 9 9 9.01 9.01 0 0 0 -9-9zm0 16a7 7 0 1 1 7-7 7.008 7.008 0 0 1 -7 7z"/><path d="m32 44a5 5 0 1 0 5 5 5.006 5.006 0 0 0 -5-5zm0 8a3 3 0 1 1 3-3 3 3 0 0 1 -3 3z"/></g></g></svg>